# This file uses centimeters as units for non-parametric coordinates.

mtllib Mesa.mtl
g default
v -0.566475 0.731926 1.007478
v -0.566475 0.731926 -1.007478
v 0.566475 0.731926 -1.007478
v 0.566475 0.731926 1.007478
v -0.566475 0.791159 1.007478
v -0.566475 0.791159 -1.007479
v 0.566475 0.791159 -1.007478
v 0.566475 0.791159 1.007478
v -0.501616 0.786967 -0.841450
v -0.501616 0.786967 -0.933431
v -0.448496 0.786967 -0.933431
v -0.448496 0.786967 -0.841450
v -0.501616 0.015388 -0.841450
v -0.501616 0.015388 -0.933431
v -0.448496 0.015388 -0.841450
v -0.448496 0.015388 -0.933431
v 0.447088 0.786967 -0.841450
v 0.447088 0.786967 -0.933431
v 0.500209 0.786967 -0.933431
v 0.500209 0.786967 -0.841450
v 0.447088 0.015388 -0.841450
v 0.447088 0.015388 -0.933431
v 0.500209 0.015388 -0.841450
v 0.500209 0.015388 -0.933431
v -0.501616 0.786967 0.908761
v -0.501616 0.786967 0.816780
v -0.448495 0.786967 0.816780
v -0.448495 0.786967 0.908761
v -0.501616 0.015388 0.908761
v -0.501616 0.015388 0.816780
v -0.448495 0.015388 0.908761
v -0.448495 0.015388 0.816780
v 0.447088 0.786967 0.908761
v 0.447088 0.786967 0.816780
v 0.500209 0.786967 0.816780
v 0.500209 0.786967 0.908761
v 0.447088 0.015388 0.908761
v 0.447088 0.015388 0.816780
v 0.500209 0.015388 0.908761
v 0.500209 0.015388 0.816780
v -0.502493 0.718631 0.910136
v -0.502493 0.718631 -0.933472
v -0.502493 0.777863 0.910135
v -0.502493 0.777863 -0.933473
v -0.519878 0.718631 0.910136
v -0.519878 0.718631 -0.933472
v -0.519878 0.777863 0.910135
v -0.519878 0.777863 -0.933473
v 0.518018 0.718631 0.910135
v 0.518018 0.718631 -0.933472
v 0.518018 0.777863 0.910135
v 0.518018 0.777863 -0.933473
v 0.500633 0.718631 0.910135
v 0.500633 0.718631 -0.933472
v 0.500633 0.777863 0.910135
v 0.500634 0.777863 -0.933473
v 0.518018 0.718631 0.910135
v -0.519878 0.718631 0.910136
v 0.518018 0.777863 0.910136
v -0.519878 0.777863 0.910135
v 0.518018 0.718631 0.927520
v -0.519878 0.718631 0.927520
v 0.518018 0.777863 0.927520
v -0.519878 0.777863 0.927520
v 0.518018 0.718631 -0.950857
v -0.519878 0.718631 -0.950857
v 0.518018 0.777863 -0.950857
v -0.519878 0.777863 -0.950857
v 0.518018 0.718631 -0.933472
v -0.519878 0.718631 -0.933472
v 0.518018 0.777863 -0.933472
v -0.519878 0.777863 -0.933473
vt 0.006860 0.216846
vt 0.679669 0.216846
vt 0.679669 0.595146
vt 0.006860 0.595146
vt 0.006860 0.993225
vt 0.006860 0.614925
vt 0.679669 0.614925
vt 0.679669 0.993225
vt 0.970557 0.263494
vt 0.995582 0.263494
vt 0.995586 0.734032
vt 0.970559 0.734032
vt 0.995586 0.998611
vt 0.970559 0.998611
vt 0.970557 -0.001075
vt 0.995583 -0.001075
vt 0.540767 0.185684
vt 0.540767 0.216397
vt 0.523030 0.216397
vt 0.523030 0.185684
vt 0.957984 0.310775
vt 0.700348 0.310775
vt 0.700348 0.293038
vt 0.957984 0.293038
vt 0.957984 0.262324
vt 0.700348 0.262325
vt 0.700348 0.244587
vt 0.957984 0.244587
vt 0.700348 0.213874
vt 0.957984 0.213874
vt 0.558953 0.185684
vt 0.558953 0.216397
vt 0.541216 0.216397
vt 0.541216 0.185684
vt 0.957984 0.408126
vt 0.700348 0.408126
vt 0.700348 0.390388
vt 0.957984 0.390388
vt 0.957984 0.359675
vt 0.700348 0.359675
vt 0.700348 0.341938
vt 0.957984 0.341937
vt 0.700348 0.311224
vt 0.957984 0.311224
vt 0.577140 0.185684
vt 0.577140 0.216397
vt 0.559402 0.216397
vt 0.559402 0.185684
vt 0.522581 0.216397
vt 0.264945 0.216397
vt 0.264945 0.198659
vt 0.522581 0.198659
vt 0.522581 0.167946
vt 0.264945 0.167946
vt 0.264945 0.150208
vt 0.522581 0.150208
vt 0.264945 0.119495
vt 0.522581 0.119495
vt 0.595326 0.185684
vt 0.595326 0.216397
vt 0.577589 0.216397
vt 0.577589 0.185684
vt 0.264496 0.216397
vt 0.006860 0.216397
vt 0.006860 0.198659
vt 0.264496 0.198659
vt 0.264496 0.167946
vt 0.006860 0.167946
vt 0.006860 0.150208
vt 0.264496 0.150208
vt 0.006860 0.119495
vt 0.264496 0.119495
vt 0.767347 0.408638
vt 0.767346 0.993225
vt 0.748564 0.993225
vt 0.748564 0.408638
vt 0.777550 0.408575
vt 0.796332 0.408575
vt 0.796332 0.993162
vt 0.777549 0.993162
vt 0.719130 0.408638
vt 0.719130 0.993225
vt 0.700348 0.993225
vt 0.700348 0.408638
vt 0.729333 0.408575
vt 0.748115 0.408575
vt 0.748115 0.993162
vt 0.729333 0.993162
vt 0.868525 0.993221
vt 0.868526 0.647589
vt 0.888252 0.647589
vt 0.888250 0.993221
vt 0.862492 0.993225
vt 0.842766 0.993225
vt 0.842768 0.647593
vt 0.862494 0.647593
vt 0.656008 0.216397
vt 0.636229 0.216397
vt 0.636229 0.210592
vt 0.656008 0.210592
vt 0.595775 0.210592
vt 0.615553 0.210592
vt 0.615553 0.216397
vt 0.595775 0.216397
vt 0.822592 0.993217
vt 0.822539 0.647585
vt 0.842264 0.647582
vt 0.842317 0.993214
vt 0.816559 0.993222
vt 0.796834 0.993225
vt 0.796781 0.647593
vt 0.816506 0.647590
vt 0.676235 0.216397
vt 0.656457 0.216397
vt 0.656457 0.210592
vt 0.676235 0.210592
vt 0.616002 0.210592
vt 0.635780 0.210592
vt 0.635780 0.216397
vt 0.616002 0.216397
vn 0.000000 -1.000000 0.000000
vn 0.000000 -1.000000 0.000000
vn 0.000000 -1.000000 0.000000
vn 0.000000 -1.000000 0.000000
vn 0.000000 1.000000 0.000000
vn 0.000000 1.000000 0.000000
vn 0.000000 1.000000 0.000000
vn 0.000000 1.000000 0.000000
vn -1.000000 0.000000 -0.000000
vn -1.000000 0.000000 -0.000000
vn -1.000000 0.000000 -0.000000
vn -1.000000 0.000000 -0.000000
vn 0.000000 0.000000 -1.000000
vn 0.000000 0.000000 -1.000000
vn 0.000000 0.000000 -1.000000
vn 0.000000 0.000000 -1.000000
vn 1.000000 -0.000000 0.000000
vn 1.000000 -0.000000 0.000000
vn 1.000000 -0.000000 0.000000
vn 1.000000 -0.000000 0.000000
vn 0.000000 0.000000 1.000000
vn 0.000000 0.000000 1.000000
vn 0.000000 0.000000 1.000000
vn 0.000000 0.000000 1.000000
vn 0.000000 -1.000000 0.000000
vn 0.000000 -1.000000 0.000000
vn 0.000000 -1.000000 0.000000
vn 0.000000 -1.000000 0.000000
vn 0.000000 0.000000 1.000000
vn 0.000000 0.000000 1.000000
vn 0.000000 0.000000 1.000000
vn 0.000000 0.000000 1.000000
vn 0.000000 0.000000 -1.000000
vn 0.000000 0.000000 -1.000000
vn 0.000000 0.000000 -1.000000
vn 0.000000 0.000000 -1.000000
vn -1.000000 0.000000 -0.000000
vn -1.000000 0.000000 -0.000000
vn -1.000000 0.000000 -0.000000
vn -1.000000 0.000000 -0.000000
vn 1.000000 -0.000000 0.000000
vn 1.000000 -0.000000 0.000000
vn 1.000000 -0.000000 0.000000
vn 1.000000 -0.000000 0.000000
vn 0.000000 -1.000000 0.000000
vn 0.000000 -1.000000 0.000000
vn 0.000000 -1.000000 0.000000
vn 0.000000 -1.000000 0.000000
vn 0.000000 0.000000 1.000000
vn 0.000000 0.000000 1.000000
vn 0.000000 0.000000 1.000000
vn 0.000000 0.000000 1.000000
vn 0.000000 0.000000 -1.000000
vn 0.000000 0.000000 -1.000000
vn 0.000000 0.000000 -1.000000
vn 0.000000 0.000000 -1.000000
vn -1.000000 0.000000 -0.000000
vn -1.000000 0.000000 -0.000000
vn -1.000000 0.000000 -0.000000
vn -1.000000 0.000000 -0.000000
vn 1.000000 -0.000000 0.000000
vn 1.000000 -0.000000 0.000000
vn 1.000000 -0.000000 0.000000
vn 1.000000 -0.000000 0.000000
vn 0.000000 -1.000000 0.000000
vn 0.000000 -1.000000 0.000000
vn 0.000000 -1.000000 0.000000
vn 0.000000 -1.000000 0.000000
vn 0.000000 0.000000 1.000000
vn 0.000000 0.000000 1.000000
vn 0.000000 0.000000 1.000000
vn 0.000000 0.000000 1.000000
vn 0.000000 0.000000 -1.000000
vn 0.000000 0.000000 -1.000000
vn 0.000000 0.000000 -1.000000
vn 0.000000 0.000000 -1.000000
vn -1.000000 0.000000 -0.000000
vn -1.000000 0.000000 -0.000000
vn -1.000000 0.000000 -0.000000
vn -1.000000 0.000000 -0.000000
vn 1.000000 -0.000000 0.000000
vn 1.000000 -0.000000 0.000000
vn 1.000000 -0.000000 0.000000
vn 1.000000 -0.000000 0.000000
vn 0.000000 -1.000000 0.000000
vn 0.000000 -1.000000 0.000000
vn 0.000000 -1.000000 0.000000
vn 0.000000 -1.000000 0.000000
vn 0.000000 0.000000 1.000000
vn 0.000000 0.000000 1.000000
vn 0.000000 0.000000 1.000000
vn 0.000000 0.000000 1.000000
vn 0.000000 0.000000 -1.000000
vn 0.000000 0.000000 -1.000000
vn 0.000000 0.000000 -1.000000
vn 0.000000 0.000000 -1.000000
vn -1.000000 0.000000 -0.000000
vn -1.000000 0.000000 -0.000000
vn -1.000000 0.000000 -0.000000
vn -1.000000 0.000000 -0.000000
vn 1.000000 -0.000000 0.000000
vn 1.000000 -0.000000 0.000000
vn 1.000000 -0.000000 0.000000
vn 1.000000 -0.000000 0.000000
vn 1.000000 -0.000000 0.000000
vn 1.000000 -0.000000 0.000000
vn 1.000000 -0.000000 0.000000
vn 1.000000 -0.000000 0.000000
vn -1.000000 0.000000 -0.000000
vn -1.000000 0.000000 -0.000000
vn -1.000000 0.000000 -0.000000
vn -1.000000 0.000000 -0.000000
vn 0.000000 -1.000000 0.000000
vn 0.000000 -1.000000 0.000000
vn 0.000000 -1.000000 0.000000
vn 0.000000 -1.000000 0.000000
vn 1.000000 -0.000000 0.000000
vn 1.000000 -0.000000 0.000000
vn 1.000000 -0.000000 0.000000
vn 1.000000 -0.000000 0.000000
vn -1.000000 0.000000 -0.000000
vn -1.000000 0.000000 -0.000000
vn -1.000000 0.000000 -0.000000
vn -1.000000 0.000000 -0.000000
vn 0.000000 -1.000000 0.000000
vn 0.000000 -1.000000 0.000000
vn 0.000000 -1.000000 0.000000
vn 0.000000 -1.000000 0.000000
vn 0.000000 0.000000 -1.000000
vn 0.000000 0.000000 -1.000000
vn 0.000000 0.000000 -1.000000
vn 0.000000 0.000000 -1.000000
vn 0.000000 0.000000 1.000000
vn 0.000000 0.000000 1.000000
vn 0.000000 0.000000 1.000000
vn 0.000000 0.000000 1.000000
vn -1.000000 0.000000 -0.000000
vn -1.000000 0.000000 -0.000000
vn -1.000000 0.000000 -0.000000
vn -1.000000 0.000000 -0.000000
vn 0.000000 -1.000000 0.000000
vn 0.000000 -1.000000 0.000000
vn 0.000000 -1.000000 0.000000
vn 0.000000 -1.000000 0.000000
vn 1.000000 -0.000000 0.000000
vn 1.000000 -0.000000 0.000000
vn 1.000000 -0.000000 0.000000
vn 1.000000 -0.000000 0.000000
vn 0.000000 0.000000 -1.000000
vn 0.000000 0.000000 -1.000000
vn 0.000000 0.000000 -1.000000
vn 0.000000 0.000000 -1.000000
vn 0.000000 0.000000 1.000000
vn 0.000000 0.000000 1.000000
vn 0.000000 0.000000 1.000000
vn 0.000000 0.000000 1.000000
vn -1.000000 0.000000 -0.000000
vn -1.000000 0.000000 -0.000000
vn -1.000000 0.000000 -0.000000
vn -1.000000 0.000000 -0.000000
vn 0.000000 -1.000000 0.000000
vn 0.000000 -1.000000 0.000000
vn 0.000000 -1.000000 0.000000
vn 0.000000 -1.000000 0.000000
vn 1.000000 -0.000000 0.000000
vn 1.000000 -0.000000 0.000000
vn 1.000000 -0.000000 0.000000
vn 1.000000 -0.000000 0.000000
s off
g table:Mesh
usemtl lambert3SG
f 1/1/1 2/2/2 3/3/3 4/4/4
f 5/5/5 8/6/6 7/7/7 6/8/8
f 1/9/9 5/10/10 6/11/11 2/12/12
f 2/12/13 6/11/14 7/13/15 3/14/16
f 3/3/17 7/7/18 8/6/19 4/4/20
f 5/10/21 1/9/22 4/15/23 8/16/24
f 13/17/25 14/18/26 16/19/27 15/20/28
f 9/21/29 13/22/30 15/23/31 12/24/32
f 11/25/33 16/26/34 14/27/35 10/28/36
f 10/28/37 14/27/38 13/29/39 9/30/40
f 12/24/41 15/23/42 16/26/43 11/25/44
f 21/31/45 22/32/46 24/33/47 23/34/48
f 17/35/49 21/36/50 23/37/51 20/38/52
f 19/39/53 24/40/54 22/41/55 18/42/56
f 18/42/57 22/41/58 21/43/59 17/44/60
f 20/38/61 23/37/62 24/40/63 19/39/64
f 29/45/65 30/46/66 32/47/67 31/48/68
f 25/49/69 29/50/70 31/51/71 28/52/72
f 27/53/73 32/54/74 30/55/75 26/56/76
f 26/56/77 30/55/78 29/57/79 25/58/80
f 28/52/81 31/51/82 32/54/83 27/53/84
f 37/59/85 38/60/86 40/61/87 39/62/88
f 33/63/89 37/64/90 39/65/91 36/66/92
f 35/67/93 40/68/94 38/69/95 34/70/96
f 34/70/97 38/69/98 37/71/99 33/72/100
f 36/66/101 39/65/102 40/68/103 35/67/104
f 41/73/105 42/74/106 44/75/107 43/76/108
f 45/77/109 47/78/110 48/79/111 46/80/112
f 42/74/113 41/73/114 45/77/115 46/80/116
f 49/81/117 50/82/118 52/83/119 51/84/120
f 53/85/121 55/86/122 56/87/123 54/88/124
f 50/82/125 49/81/126 53/85/127 54/88/128
f 57/89/129 58/90/130 60/91/131 59/92/132
f 61/93/133 63/94/134 64/95/135 62/96/136
f 60/97/137 58/98/138 62/99/139 64/100/140
f 58/90/141 57/89/142 61/93/143 62/96/144
f 57/101/145 59/102/146 63/103/147 61/104/148
f 65/105/149 66/106/150 68/107/151 67/108/152
f 69/109/153 71/110/154 72/111/155 70/112/156
f 68/113/157 66/114/158 70/115/159 72/116/160
f 66/106/161 65/105/162 69/109/163 70/112/164
f 65/117/165 67/118/166 71/119/167 69/120/168
