# This file uses centimeters as units for non-parametric coordinates.

mtllib Brazo.mtl
g default
v -0.421229 0.563290 0.060821
v -0.317066 0.430191 0.043904
v -0.228099 0.492510 -0.150857
v -0.510717 0.520531 -0.257810
v -0.412341 0.661904 -0.248387
v -0.330541 0.570686 -0.275126
v -0.397142 0.357234 -0.190611
v -0.213482 0.628930 -0.115721
v -0.324141 0.609291 0.026046
v -0.501881 0.617892 -0.006562
v -0.413776 0.762299 -0.070697
v -0.516595 0.462367 -0.045589
v -0.557974 0.647528 -0.136189
v -0.292139 0.140127 0.017444
v 0.128626 0.301310 -0.138900
v -0.220129 0.155992 -0.196195
v 0.070318 0.261118 0.035057
v -0.423136 0.373344 -0.070751
v -0.330040 0.193528 -0.003497
v 0.178668 0.232109 0.070661
v 0.108553 0.221842 -0.281148
v 0.033935 -0.084829 -0.153666
v 0.002910 -0.156202 0.078408
v -0.004056 0.061102 0.190383
vt 0.062501 0.249989
vt 0.187500 0.187500
vt 0.187503 0.312490
vt 0.187503 0.249989
vt 0.125002 0.187488
vt 0.062501 0.249989
vt 0.062501 0.187488
vt 0.062501 0.312490
vt 0.062501 0.187488
vt 0.062501 0.312490
vt 0.125002 0.374990
vt 0.187503 0.249989
vt 0.125002 0.374990
vt 0.183169 0.659052
vt 0.161013 0.751461
vt 0.112490 0.661738
vt 0.197086 0.815915
vt 0.238285 0.724178
vt 0.231266 0.557977
vt 0.263432 0.617365
vt 0.256718 0.654841
vt 0.231266 0.557977
vt 0.183963 0.658747
vt 0.062501 0.374990
vt 0.154055 0.475334
vt 0.174441 0.795895
vt 0.101259 0.787350
vt 0.183719 0.461295
vt 0.154055 0.475334
vt 0.131472 0.804929
vt 0.256718 0.654841
vn -0.804838 -0.478345 0.351316
vn 0.029477 0.033960 0.998988
vn -0.244379 0.151119 0.957832
vn 0.903435 0.428357 -0.017778
vn 0.892651 0.060932 -0.446611
vn 0.396033 0.078455 -0.914879
vn -0.783917 -0.559621 0.268883
vn -0.643376 -0.211718 -0.735692
vn -0.426120 -0.541249 -0.724894
vn -0.643376 -0.211718 -0.735692
vn -0.049890 0.644851 -0.762678
vn 0.396033 0.078455 -0.914879
vn -0.044432 0.975445 0.215713
vn 0.903435 0.428357 -0.017778
vn -0.049890 0.644851 -0.762678
vn 0.903435 0.428357 -0.017778
vn -0.044432 0.975445 0.215713
vn 0.428820 0.408398 0.805807
vn -0.244379 0.151119 0.957832
vn -0.651234 0.312491 0.691551
vn -0.804838 -0.478345 0.351316
vn -0.852204 -0.308844 0.422332
vn -0.799849 -0.440568 0.407604
vn -0.261947 -0.256222 -0.930448
vn 0.029477 0.033960 0.998988
vn -0.799849 -0.440568 0.407604
vn 0.194470 0.610668 0.767637
vn 0.202809 0.578629 -0.789973
vn 0.194470 0.610668 0.767637
vn -0.205883 0.874462 -0.439236
vn -0.852204 -0.308844 0.422332
vn -0.601180 0.542174 0.587053
vn 0.194470 0.610668 0.767637
vn 0.194470 0.610668 0.767637
vn 0.202809 0.578629 -0.789973
vn 0.700061 0.514393 -0.495292
vn -0.852204 -0.308844 0.422332
vn 0.194470 0.610668 0.767637
vn -0.799849 -0.440568 0.407604
vn -0.804838 -0.478345 0.351316
vn -0.783917 -0.559621 0.268883
vn 0.029477 0.033960 0.998988
vn -0.643376 -0.211718 -0.735692
vn -0.783917 -0.559621 0.268883
vn -0.804838 -0.478345 0.351316
vn 0.892651 0.060932 -0.446611
vn -0.426120 -0.541249 -0.724894
vn 0.396033 0.078455 -0.914879
vn -0.643376 -0.211718 -0.735692
vn 0.396033 0.078455 -0.914879
vn -0.426120 -0.541249 -0.724894
vn 0.892651 0.060932 -0.446611
vn 0.903435 0.428357 -0.017778
vn 0.029477 0.033960 0.998988
vn -0.244379 0.151119 0.957832
vn 0.029477 0.033960 0.998988
vn 0.428820 0.408398 0.805807
vn 0.428820 0.408398 0.805807
vn 0.029477 0.033960 0.998988
vn 0.903435 0.428357 -0.017778
vn -0.044432 0.975445 0.215713
vn -0.049890 0.644851 -0.762678
vn -0.906250 0.405488 -0.119539
vn -0.044432 0.975445 0.215713
vn -0.651234 0.312491 0.691551
vn 0.428820 0.408398 0.805807
vn 0.396033 0.078455 -0.914879
vn -0.049890 0.644851 -0.762678
vn 0.903435 0.428357 -0.017778
vn -0.049890 0.644851 -0.762678
vn -0.643376 -0.211718 -0.735692
vn -0.906250 0.405488 -0.119539
vn 0.428820 0.408398 0.805807
vn -0.651234 0.312491 0.691551
vn -0.244379 0.151119 0.957832
vn -0.906250 0.405488 -0.119539
vn -0.804838 -0.478345 0.351316
vn -0.651234 0.312491 0.691551
vn -0.906250 0.405488 -0.119539
vn -0.643376 -0.211718 -0.735692
vn -0.804838 -0.478345 0.351316
vn -0.906250 0.405488 -0.119539
vn -0.651234 0.312491 0.691551
vn -0.044432 0.975445 0.215713
vn -0.852204 -0.308844 0.422332
vn -0.261947 -0.256222 -0.930448
vn -0.857563 -0.479965 -0.184986
vn 0.892651 0.060932 -0.446611
vn 0.700061 0.514393 -0.495292
vn -0.426120 -0.541249 -0.724894
vn -0.176942 -0.253134 -0.951113
vn -0.857563 -0.479965 -0.184986
vn -0.261947 -0.256222 -0.930448
vn -0.426120 -0.541249 -0.724894
vn -0.261947 -0.256222 -0.930448
vn -0.799849 -0.440568 0.407604
vn -0.261947 -0.256222 -0.930448
vn 0.202809 0.578629 -0.789973
vn -0.176942 -0.253134 -0.951113
vn -0.261947 -0.256222 -0.930448
vn 0.700061 0.514393 -0.495292
vn 0.202809 0.578629 -0.789973
vn 0.029477 0.033960 0.998988
vn 0.194470 0.610668 0.767637
vn 0.892651 0.060932 -0.446611
vn 0.700061 0.514393 -0.495292
vn 0.892651 0.060932 -0.446611
vn 0.194470 0.610668 0.767637
vn 0.029477 0.033960 0.998988
vn -0.783917 -0.559621 0.268883
vn -0.799849 -0.440568 0.407604
vn -0.261947 -0.256222 -0.930448
vn -0.426120 -0.541249 -0.724894
vn 0.700061 0.514393 -0.495292
vn -0.799849 -0.440568 0.407604
vn -0.783917 -0.559621 0.268883
vn -0.426120 -0.541249 -0.724894
vn -0.601180 0.542174 0.587053
vn -0.205883 0.874462 -0.439236
vn 0.194470 0.610668 0.767637
vn -0.601180 0.542174 0.587053
vn -0.852204 -0.308844 0.422332
vn -0.857563 -0.479965 -0.184986
s off
g polySurface1 stan1
usemtl lambert2SG
f 12/1/1 2/2/2 1/3/3
f 8/4/4 3/5/5 6/6/6
f 18/7/7 4/8/8 7/9/9
f 4/8/10 5/10/11 6/6/12
f 11/11/13 8/4/14 5/10/15
f 8/4/16 11/11/17 9/12/18
f 1/3/19 10/13/20 12/1/21
f 14/14/22 19/15/23 16/16/24
f 2/17/25 19/15/26 17/18/27
f 21/19/28 17/18/29 20/20/30
f 14/14/31 24/21/32 17/18/33
f 17/18/34 21/22/35 15/23/36
f 14/14/37 17/18/38 19/15/39
f 12/1/40 18/7/41 2/2/42
f 4/8/43 18/7/44 12/1/45
f 3/5/46 7/9/47 6/6/48
f 4/8/49 6/6/50 7/9/51
f 3/5/52 8/4/53 2/2/54
f 1/3/55 2/2/56 9/12/57
f 9/12/58 2/2/59 8/4/60
f 11/11/61 5/10/62 13/24/63
f 11/11/64 10/13/65 9/12/66
f 6/6/67 5/10/68 8/4/69
f 5/10/70 4/8/71 13/24/72
f 9/12/73 10/13/74 1/3/75
f 13/24/76 12/1/77 10/13/78
f 13/24/79 4/8/80 12/1/81
f 13/24/82 10/13/83 11/11/84
f 14/14/85 16/16/86 23/25/87
f 3/26/88 15/23/89 7/27/90
f 22/28/91 23/29/92 16/16/93
f 7/27/94 16/16/95 19/15/96
f 16/16/97 21/19/98 22/28/99
f 16/16/100 15/23/101 21/22/102
f 2/17/103 17/18/104 3/26/105
f 15/23/106 3/26/107 17/18/108
f 2/17/109 18/30/110 19/15/111
f 16/16/112 7/27/113 15/23/114
f 19/15/115 18/30/116 7/27/117
f 24/31/118 20/20/119 17/18/120
f 24/31/121 14/14/122 23/29/123
